<svg width="512" height="512" viewBox="0 0 512 512" fill="none" xmlns="http://www.w3.org/2000/svg">
<path d="M443.599 202.671L441.27 201.665L440.299 204.009L378.648 352.726H133.068L71.4675 204.079L70.5061 201.759L68.1905 202.731C63.1283 204.855 57.4639 205.056 52.2641 203.295C47.0643 201.533 42.6879 197.932 39.959 193.168C37.2302 188.404 36.3373 182.807 37.4484 177.43C38.5595 172.054 41.598 167.269 45.9917 163.977C50.3853 160.686 55.8309 159.114 61.303 159.558C66.775 160.002 71.8958 162.431 75.7011 166.389C79.5064 170.346 81.7335 175.558 81.9631 181.043C82.1927 186.529 80.4088 191.908 76.9475 196.17L75.3771 198.103L77.3047 199.681L164.305 270.881L167.649 273.618L168.354 269.354L189.274 142.954L189.678 140.516L187.245 140.084C181.945 139.144 177.157 136.334 173.752 132.165C170.346 127.996 168.548 122.745 168.684 117.363C168.819 111.982 170.88 106.827 174.492 102.836C178.103 98.8437 183.026 96.2789 188.367 95.6067C193.708 94.9346 199.113 96.1996 203.601 99.1721C208.089 102.145 211.362 106.628 212.827 111.808C214.292 116.988 213.852 122.521 211.585 127.404C209.319 132.287 205.377 136.195 200.475 138.419L198.179 139.461L199.24 141.749L253.55 258.749L255.819 263.635L258.086 258.748L312.506 141.448L313.551 139.195L311.304 138.135C306.432 135.837 302.546 131.868 300.353 126.948C298.159 122.028 297.803 116.485 299.349 111.325C300.896 106.165 304.242 101.731 308.78 98.829C313.319 95.927 318.747 94.7493 324.08 95.5101C329.413 96.2709 334.295 98.9196 337.841 102.975C341.386 107.03 343.359 112.223 343.401 117.609C343.443 122.996 341.552 128.219 338.07 132.329C334.588 136.439 329.747 139.163 324.426 140.007L321.94 140.401L322.352 142.884L343.282 269.304L343.987 273.564L347.33 270.832L434.59 199.532L436.507 197.965L434.959 196.033C432.711 193.227 431.168 189.923 430.459 186.398C429.751 182.872 429.897 179.229 430.887 175.772C431.876 172.315 433.68 169.146 436.146 166.53C438.613 163.913 441.671 161.926 445.063 160.735C448.456 159.544 452.085 159.183 455.645 159.682C459.206 160.182 462.595 161.528 465.529 163.607C468.462 165.686 470.855 168.438 472.506 171.633C474.157 174.827 475.018 178.37 475.018 181.966L477.518 181.966L475.018 181.971C475.025 185.703 474.104 189.378 472.337 192.666C470.57 195.953 468.013 198.75 464.897 200.803C461.78 202.856 458.202 204.102 454.484 204.428C450.766 204.754 447.025 204.15 443.599 202.671ZM108.358 480.716V425.716H403.358V480.716H108.358ZM136.388 404.716V373.716H375.608V404.716H136.388Z" fill="url(#paint0_linear_1_2)" stroke="white" stroke-width="5"/>
<defs>
<linearGradient id="paint0_linear_1_2" x1="104" y1="125" x2="352" y2="448" gradientUnits="userSpaceOnUse">
<stop stop-color="#00A3FF"/>
<stop offset="1" stop-color="#9E00FF"/>
</linearGradient>
</defs>
</svg>
